<?xml version="1.0" encoding="iso-8859-1"?>
<!-- Generator: Adobe Illustrator 19.0.0, SVG Export Plug-In . SVG Version: 6.00 Build 0)  -->
<svg version="1.1" id="Layer_1" xmlns="http://www.w3.org/2000/svg" xmlns:xlink="http://www.w3.org/1999/xlink" x="0px" y="0px"
	 viewBox="0 0 512 512" style="enable-background:new 0 0 512 512;" xml:space="preserve">
<path style="fill:#664B33;" d="M420.064,442.921H91.937c-38.152,0-69.08,30.929-69.08,69.079h466.287
	C489.144,473.848,458.216,442.921,420.064,442.921z"/>
<path style="fill:#00D8DE;" d="M256.001,0L256.001,0C131.757,0,31.038,100.719,31.038,224.963v2.841
	c0,60.13,23.593,116.547,62.024,158.763H418.94c38.432-42.215,62.024-98.633,62.024-158.763v-2.841
	C480.963,100.719,380.245,0,256.001,0z"/>
<path style="opacity:0.3;fill:#20272E;enable-background:new    ;" d="M256.001,0L256.001,0L256.001,0l-0.001,386.567h162.94
	c38.432-42.215,62.024-98.633,62.024-158.763v-2.841C480.963,100.719,380.245,0,256.001,0z"/>
<g>
	<path style="fill:#FFFFFF;" d="M397.977,344.788c-2.169,0-4.35-0.731-6.147-2.231c-4.07-3.397-4.614-9.45-1.217-13.52
		c35.215-42.183,47.109-101.216,31.041-154.062c-1.542-5.072,1.319-10.433,6.391-11.975c5.068-1.542,10.432,1.319,11.975,6.391
		c17.927,58.968,4.643,124.855-34.671,171.949C403.452,343.614,400.723,344.788,397.977,344.788z"/>
	<path style="fill:#FFFFFF;" d="M409.729,137.209c-3.151,0-6.238-1.55-8.074-4.395c-14.59-22.61-36.227-41.399-64.309-55.842
		c-4.715-2.425-6.57-8.211-4.145-12.926c2.426-4.715,8.215-6.569,12.927-4.145c31.113,16.002,55.222,37.032,71.658,62.505
		c2.874,4.455,1.593,10.396-2.86,13.269C413.315,136.713,411.512,137.209,409.729,137.209z"/>
	<path style="fill:#FFFFFF;" d="M306.232,65.41c-0.723,0-1.458-0.082-2.192-0.253c-11.879-2.775-24.141-4.181-36.446-4.181
		c-5.302,0-9.598-4.298-9.598-9.598s4.296-9.598,9.598-9.598c13.772,0,27.503,1.575,40.812,4.684
		c5.161,1.206,8.369,6.368,7.164,11.53C314.536,62.42,310.59,65.41,306.232,65.41z"/>
</g>
<rect x="91.937" y="386.573" style="fill:#4D3926;" width="328.125" height="56.349"/>
<g>
	<path style="opacity:0.3;fill:#20272E;enable-background:new    ;" d="M256.001,512h233.143c0-38.152-30.927-69.079-69.079-69.079
		H256.001V512z"/>
	<rect x="91.937" y="386.573" style="opacity:0.3;fill:#20272E;enable-background:new    ;" width="164.069" height="56.349"/>
</g>
<g>
</g>
<g>
</g>
<g>
</g>
<g>
</g>
<g>
</g>
<g>
</g>
<g>
</g>
<g>
</g>
<g>
</g>
<g>
</g>
<g>
</g>
<g>
</g>
<g>
</g>
<g>
</g>
<g>
</g>
</svg>
