<?xml version="1.0" encoding="iso-8859-1"?>
<!-- Generator: Adobe Illustrator 19.0.0, SVG Export Plug-In . SVG Version: 6.00 Build 0)  -->
<svg version="1.1" id="Layer_1" xmlns="http://www.w3.org/2000/svg" xmlns:xlink="http://www.w3.org/1999/xlink" x="0px" y="0px"
	 viewBox="0 0 512 512" style="enable-background:new 0 0 512 512;" xml:space="preserve">
<g transform="translate(1 1)">
	<path style="fill:#FFE100;" d="M502.467,255c0,136.533-110.933,247.467-247.467,247.467S7.533,391.533,7.533,255
		S118.467,7.533,255,7.533S502.467,118.467,502.467,255"/>
	<g>
		<polygon style="fill:#63D3FD;" points="348.867,203.8 161.133,203.8 255,50.2 		"/>
		<polygon style="fill:#63D3FD;" points="442.733,357.4 255,357.4 348.867,203.8 		"/>
	</g>
	<g>
		<polygon style="fill:#3DB9F9;" points="255,50.2 246.467,63.853 331.8,203.8 348.867,203.8 		"/>
		<polygon style="fill:#3DB9F9;" points="348.867,203.8 340.333,217.453 425.667,357.4 442.733,357.4 		"/>
	</g>
	<polygon style="fill:#63D3FD;" points="255,357.4 67.267,357.4 161.133,203.8 	"/>
	<polygon style="fill:#3DB9F9;" points="161.133,203.8 152.6,217.453 237.933,357.4 255,357.4 	"/>
	<path style="fill:#FFA800;" d="M255,7.533c-2.56,0-5.973,0-8.533,0C379.587,11.8,485.4,121.027,485.4,255
		S379.587,497.347,246.467,502.467c2.56,0,5.973,0,8.533,0c136.533,0,247.467-110.933,247.467-247.467S391.533,7.533,255,7.533"/>
	<path style="fill:#FFFFFF;" d="M255,7.533c2.56,0,5.973,0,8.533,0C130.413,12.653,24.6,121.027,24.6,255
		s105.813,242.347,238.933,247.467c-2.56,0-5.973,0-8.533,0C118.467,502.467,7.533,391.533,7.533,255S118.467,7.533,255,7.533"/>
	<path d="M255,511C114.2,511-1,395.8-1,255S114.2-1,255-1s256,115.2,256,256S395.8,511,255,511z M255,16.067
		C123.587,16.067,16.067,123.587,16.067,255S123.587,493.933,255,493.933S493.933,386.413,493.933,255S386.413,16.067,255,16.067z"
		/>
	<path d="M348.867,212.333H161.133c-3.413,0-5.973-1.707-7.68-4.267s-1.707-5.973,0-8.533l93.867-153.6
		c3.413-5.12,11.093-5.12,14.507,0l93.867,153.6c1.707,2.56,1.707,5.973,0,8.533C353.987,210.627,352.28,212.333,348.867,212.333z
		 M176.493,195.267h157.013L255,66.413L176.493,195.267z"/>
	<path d="M442.733,365.933H255c-3.413,0-5.973-1.707-7.68-4.267c-1.707-2.56-1.707-5.973,0-8.533l93.867-153.6
		c3.413-5.12,11.093-5.12,14.507,0l93.867,153.6c1.707,2.56,1.707,5.973,0,8.533C447.853,364.227,446.147,365.933,442.733,365.933z
		 M270.36,348.867h157.013l-78.507-128.853L270.36,348.867z"/>
	<path d="M255,365.933H67.267c-3.413,0-5.973-1.707-7.68-4.267c-1.707-2.56-1.707-5.973,0-8.533l93.867-153.6
		c3.413-5.12,11.093-5.12,14.507,0l93.867,153.6c1.707,2.56,1.707,5.973,0,8.533S258.413,365.933,255,365.933z M82.627,348.867
		H239.64l-78.507-128.853L82.627,348.867z"/>
</g>
<g>
</g>
<g>
</g>
<g>
</g>
<g>
</g>
<g>
</g>
<g>
</g>
<g>
</g>
<g>
</g>
<g>
</g>
<g>
</g>
<g>
</g>
<g>
</g>
<g>
</g>
<g>
</g>
<g>
</g>
</svg>
